<?xml version="1.0" encoding="UTF-8"?>
<svg xmlns="http://www.w3.org/2000/svg" version="1.1" viewBox="0 0 24 24">
  <!-- Generator: Adobe Illustrator 28.6.0, SVG Export Plug-In . SVG Version: 1.2.0 Build 709)  -->
  <g>
    <g id="_图层_1">
      <path class="cls-1" d="M20.5,16.9c-1.4-1.5-2.8-3-4.4-4.3-.2-.1-.2-.2-.1-.4.3-.5.6-1,1-1.4,1.1-1.1,2.2-2.2,3.3-3.3.5-.5.8-1,.8-1.7,0-.8-.4-1.3-.9-1.8-1.3-1.2-2.4-1.2-3.7,0-.8.8-1.6,1.7-2.5,2.5-1.3,1.2-2.3,2.7-2.6,4.6,0,.3,0,.4-.4.4-1.1.2-2.2.6-3.1,1.3-1.6,1.3-3,2.8-4.4,4.3-.7.8-.6,2,0,2.8.2.2.4.4.6.6,1,1,2.2.9,3.2,0,1-1,2-2,3.1-3.1.7-.7.6-.7.2-1.6-.2-.4-.3-.5-.7-.2-1.3,1.2-2.4,2.4-3.7,3.6-.5.5-.7.5-1.4-.3-.4-.4-.4-.7,0-1.2,1-1,2.1-2.1,3.1-3.1.8-.8,1.7-1.3,2.7-1.6.5-.1.6,0,.7.5.2,1.2.8,2.3,1.6,3.2,1.2,1.2,2.4,2.5,3.7,3.7.3.3.7.5,1.2.6,1.1.2,1.8-.4,2.4-1.1.8-.8.9-2.2.1-3h0ZM13,10.7c.3-1,.8-1.9,1.5-2.6,1.1-1,2.1-2.1,3.1-3.2.3-.3.6-.5.9-.3.4.2.8.5.9,1.1,0,.3-.2.4-.3.6-1,1-2.1,2.1-3.1,3.1-.6.6-1.1,1.2-1.5,2-.1.3-.2.3-.5.2-.2,0-.4-.1-.6-.2-.6,0-.6-.4-.4-.8h0ZM19.2,18.8c-.7.8-.9.8-1.4.4-1.2-1.2-2.4-2.4-3.6-3.7-.7-.7-1-1.6-1.2-2.6,1.1.2,2,.6,2.7,1.3,1.2,1.1,2.3,2.3,3.5,3.4.5.5.5.7,0,1.1Z"/>
    </g>
  </g>
</svg>